{"title":"Never Back Down 2 DVDSCR 2011 XViD - IMAGiNE","uid":6630208,"size":1484742267,"categoryP":"video","categoryS":"movies","magnet":"?xt=urn:btih:c49d1867df5b782b6471b0aec92887fac4b7db86&amp;dn=Never+Back+Down+2+DVDSCR+2011+XViD+-+IMAGiNE&amp;tr=udp%3A%2F%2Ftracker.openbittorrent.com%3A80&amp;tr=udp%3A%2F%2Fopen.demonii.com%3A1337&amp;tr=udp%3A%2F%2Ftracker.coppersurfer.tk%3A6969&amp;tr=udp%3A%2F%2Fexodus.desync.com%3A6969","seeders":0,"leechers":1,"uploader":"SAFCukO09","files":4,"time":1314304653,"description":"********** **** **** *** ******** *********** **** *** **********\n*+* +*+*+* *+*+*+ *+* *+* *+* *+* *+* *+*+* *+* *+*\n+*+ +*+ +*+*+ +*+ +*+ +*+ +*+ +*+ *+*+*+ +*+ +*+\n+$+ +$+ +*+ +$+ +$++*++$++* *$* +$+ +$+ +*+ +$+ +$++*++$\n+$+ +$+ +$+ +$+ +$+ +$+ +$+$ +$+ +$+ +$+$+$ +$+\n$+$ $+$ $+$ $+$ $+$ $+$ $+$ $+$ $+$ $+$+$ $+$\n$$$$$$$$$$$ $$$ $$$ $$$ $$$ $$$$$$$$ $$$$$$$$$$$ $$$ $$$$ $$$$$$$$$$\n\n\n\n\nAnother Fine Release Brought to you from - IMAGiNE\n\n\n********************************************************************************************************************\nNever Back Down 2 DVDSCR 2011 XViD - IMAGiNE\n********************************************************************************************************************\n\nRipper ...........:IMAGiNE IMDB Rating.......:6.5/10\nVideo Codec.......:XVID Release Date......:25/08/11\nAudio Codec.......:AC3 Theatre Date......:nil\nAudio Bitrate.....:192 Runtime...........:1h 42mn\nSubtitles.........:NIL Language..........:ENGLISH\nResolution........:720 x 400 IMDb URL..........:http://www.imdb.com/title/tt1754264/\n\n\nDETAILS:\n\nVideo\nID : 0\nFormat : MPEG-4 Visual\nFormat profile : Advanced Simple@L5\nFormat settings, BVOP : 2\nFormat settings, QPel : No\nFormat settings, GMC : No warppoints\nFormat settings, Matrix : Default (H.263)\nMuxing mode : Packed bitstream\nCodec ID : XVID\nCodec ID/Hint : XviD\nDuration : 1h 42mn\nBit rate : 1 703 Kbps\nWidth : 720 pixels\nHeight : 400 pixels\nDisplay aspect ratio : 16:9\nFrame rate : 29.970 fps\nColor space : YUV\nChroma subsampling : 4:2:0\nBit depth : 8 bits\nScan type : Progressive\nCompression mode : Lossy\nBits/(Pixel*Frame) : 0.197\nStream size : 1.22 GiB (89%)\nWriting library : XviD 64\n\nAudio\nID : 1\nFormat : AC-3\nFormat/Info : Audio Coding 3\nMode extension : CM (complete main)\nCodec ID : 2000\nDuration : 1h 42mn\nBit rate mode : Constant\nBit rate : 192 Kbps\nChannel(s) : 2 channels\nChannel positions : Front: L R\nSampling rate : 48.0 KHz\nBit depth : 16 bits\nCompression mode : Lossy\nStream size : 141 MiB (10%)\nAlignment : Aligned on interleaves\nInterleave, duration : 33 ms (1.00 video frame)\nInterleave, preload duration : 512 ms\n\n\n\n\n\n\n\nSOURCES:\n\nVIDEO:.............CW Thanks matey\nAUDIO:.............CW Thanks matey\n\nNOTES:\n\nIMAGiNE bringing you another release..........\nNever Back Down 2 dvdscr.........\nOk folks heres another nice dvdscr.......\nsource was good so not much work needed,\nmade a script to sharpen a bit resize ect\naudio ac3 remuxed to our encode.\nEnjoy!\n\n","torrent":{"xt":"urn:btih:c49d1867df5b782b6471b0aec92887fac4b7db86","amp;dn":"Never+Back+Down+2+DVDSCR+2011+XViD+-+IMAGiNE","amp;tr":["udp%3A%2F%2Ftracker.openbittorrent.com%3A80","udp%3A%2F%2Fopen.demonii.com%3A1337","udp%3A%2F%2Ftracker.coppersurfer.tk%3A6969","udp%3A%2F%2Fexodus.desync.com%3A6969"],"infoHash":"c49d1867df5b782b6471b0aec92887fac4b7db86","infoHashBuffer":{"type":"Buffer","data":[196,157,24,103,223,91,120,43,100,113,176,174,201,40,135,250,196,183,219,134]},"announce":[],"urlList":[]}}